<?xml version="1.0" encoding="utf-8"?>
<!-- Generator: Adobe Illustrator 23.0.6, SVG Export Plug-In . SVG Version: 6.00 Build 0)  -->
<svg version="1.1" id="Layer_1" xmlns="http://www.w3.org/2000/svg" xmlns:xlink="http://www.w3.org/1999/xlink" x="0px" y="0px"
	 viewBox="0 0 864 864" enable-background="new 0 0 864 864" xml:space="preserve">
<g>
	<path fill="#E56E02" d="M473.649,650.4409c-0.2838,0-0.5706,0.0069-0.8544,0.0212c-7.8216,0.3682-14.7088,5.5559-23.7738,17.9051
		l-0.6503,0.8864l-0.8036,0.7493c-0.7078,0.6633-1.4063,1.3376-2.0822,2.02l-11.6637,11.7592l-8.1085-16.6587
		c-6.6384-13.6914-11.67-22.8204-20.7607-24.8784c-0.9756-0.2215-1.9639-0.3333-2.9427-0.3333
		c-4.1198,0-9.1736,2.0598-9.8591,7.8692c-1.2723,10.7807,7.2379,25.2548,14.0741,36.8866
		c1.2405,2.1058,2.4329,4.1356,3.5266,6.0665c8.4944,14.9814,18.522,29.7202,29.867,43.9109
		c11.8582-14.2816,22.3805-28.8006,31.2955-43.1844c1.1384-1.8361,2.4171-3.7974,3.7659-5.8555
		c6.0389-9.2323,14.3102-21.8779,12.0747-29.7809C485.3828,652.9761,479.1239,650.4409,473.649,650.4409z"/>
	<path fill="#E56E02" d="M204.9014,520.5223c0,27.3316,29.5409,26.2274,49.696,25.1234
		c0.8279-21.8112,3.0361-43.8969,4.1404-65.7079C231.1301,480.2136,204.9014,487.9436,204.9014,520.5223z"/>
	<path fill="#E56E02" d="M639.3235,530.7336c0.8282-21.8109,3.0364-43.8966,4.1404-65.7078
		c-27.6077,0.2761-53.8364,8.006-53.8364,40.5847C589.6275,532.9421,619.1687,531.8378,639.3235,530.7336z"/>
	<path fill="#E56E02" d="M560.6318,249.598c-41.6111-1.8321-111.001,28.2456-146.1828,28.2456
		c-33.3928,0-87.8846-45.3492-225.5658-6.0117c-76.0823,21.7379-153.008,122.8748-153.008,271.8727
		S101.826,813.4888,183.181,813.4888c11.4366,0,22.5682-2.3871,33.2552-6.9036c16.3109,19.8719,43.6651,31.2259,88.9415,31.2259
		c14.5267,0,28.3846-6.3513,41.0537-17.8479C368.2031,836.8437,397.7433,846,437.0427,846c38.5789,0,67.5479-8.3578,89.0028-23.8212
		c12.1716,10.088,25.3982,15.6323,39.2307,15.6323c42.9652,0,69.5242-10.84,85.8124-29.8204
		c9.6026,3.6044,19.5458,5.4982,29.7305,5.4982c81.3549,0,147.3058-120.7864,147.3058-269.7843S772.7964,258.9393,560.6318,249.598z
		 M672.7238,360.3893h22.086l-1.3801,181.9399h-22.0873L672.7238,360.3893z M644.0174,453.9822
		c0.2761-10.7675,0.5519-21.8112,0.5519-32.5787c0-16.84-2.4854-33.1292-23.1913-33.1292c-12.6996,0-25.6766,9.11-28.4367,18.2213
		c-3.8657,14.0799,0,23.7431,11.3196,23.7431c6.3497,0,22.6392-4.9696,21.5336-13.8036c-0.5519-8.8355-6.6257-6.9034-10.4901-3.3138
		l-6.9031-7.4539c0.2772-0.8279,0.8292-1.3801,1.6574-2.4854c3.0362-4.1404,6.9018-6.626,12.1475-5.2457
		c25.1234,6.351,13.2517,36.9962-8.8353,41.1366c-43.3448,8.5592-51.3508-62.3943,1.1053-62.3943
		c32.3013,0,42.2408,16.2892,42.2408,45.8304c0,43.8966-1.9335,87.7949-1.9335,131.6918l-16.0118,0.5521v-11.8717
		c-22.3633,3.3138-77.5809-7.73-77.5809-39.4804C561.1908,463.9218,613.3709,450.1166,644.0174,453.9822z M405.7644,379.4388
		l24.2965-0.8279c-0.2758,22.3631-1.9332,45.0022-1.9332,67.3653c0,19.0496,1.9332,88.0712,30.093,88.0712
		c14.6331,0,39.4804-28.1609,41.1366-41.9661c0.5521-5.2444,0.5521-10.7661,0.5521-16.5639c0-30.3705-0.5521-60.7396,1.1053-93.869
		l11.0422-0.2761c0,30.9212-1.104,62.1185-1.104,93.0395c0,13.8052,1.3814,30.3704,1.3814,46.6586
		c0,15.4612-0.5535,36.444-4.9699,49.4197c-8.2831,32.3016-46.9344,56.8729-68.1932,32.0255
		c-18.7737-24.2952,0.8279-56.0447,30.921-41.6887c6.0739,2.7614,7.7313,8.8353,6.626,14.3571l-10.4903-0.2761l0.5521-0.8292
		c2.2082-7.1782-17.1174-7.1782-21.5349-1.9322c-5.522,6.6257-4.6938,16.5652,1.9322,22.6392
		c20.4306,17.6695,46.9344-13.2518,51.3519-34.2348c2.4856-11.5956,2.7617-22.9152,2.7617-44.173
		c-9.6635,17.3935-28.9891,33.1295-49.42,33.1295c-43.069,0-49.1426-69.0217-49.1426-99.9427
		C402.7282,426.0974,405.2123,402.9062,405.7644,379.4388z M326.0904,375.3014h22.087l-1.38,181.94h-22.0873L326.0904,375.3014z
		 M287.9964,375.3014h22.087l-1.38,181.94h-22.0873L287.9964,375.3014z M229.7501,391.5905
		c32.3013,0,42.2408,16.2892,42.2408,45.8304c0,43.8969-1.9335,87.7951-1.9335,131.6918l-16.0121,0.5521v-11.8715
		c-22.3631,3.3133-77.5809-7.7302-77.5809-39.4807c0-39.4791,52.1803-53.2843,82.8266-49.4186
		c0.2761-10.7675,0.5521-21.8109,0.5521-32.5787c0-16.84-2.4856-33.1292-23.1913-33.1292c-12.6996,0-25.6766,9.11-28.437,18.2213
		c-3.8656,14.0799,0,23.7434,11.3196,23.7434c6.3499,0,22.6391-4.9699,21.5338-13.8039c-0.5521-8.8353-6.626-6.9031-10.4903-3.3135
		l-6.9031-7.4539c0.2774-0.8282,0.8292-1.3803,1.6574-2.4856c3.0361-4.1404,6.9021-6.6257,12.1478-5.2457
		c25.1232,6.351,13.2517,36.9962-8.8353,41.1366C185.2997,462.5441,177.2937,391.5905,229.7501,391.5905z M171.2225,435.4875
		c6.0739-5.2457,7.73-11.0435,7.73-17.3934c0-5.2457-2.484-10.4901-8.5579-14.356c-28.713-20.707-36.1669,69.8499-33.9587,77.5798
		l19.0495-1.3801l0.5519,11.0435l-19.6014,1.38c0.2761,21.5349,2.4854,43.0688,5.7978,64.3279l-25.6756,0.5521
		c-0.8279-21.2591-4.6938-42.5169-4.6938-63.4999l-7.7297,0.5521l-0.5521-11.0435l8.2818-0.5521
		c0.5521-36.1669,9.6635-97.4573,57.1502-97.4573c20.1535,4.6938,22.6376,18.4974,22.6376,33.4055
		c0,5.2457-1.104,11.0435-4.6922,16.5652c-4.1417,6.6257-14.9092,12.9757-23.4673,12.9757
		c-10.7674,0-18.2214-9.3861-18.2214-18.4974c0-6.0739,3.3122-12.1477,11.3196-14.9078l2.4843,9.9395
		c-1.1042,0.2758-1.9322,0.5518-3.0377,1.104C152.7251,432.451,164.8728,441.0092,171.2225,435.4875z M335.1888,699.1317
		c-0.6683,0.3208-5.3211,2.5145-12.9,5.256c-0.1601,0.3258-0.303,0.663-0.402,1.0256c-2.7281,9.9623,1.8925,19.5742-4.2698,29.9171
		c-6.1607,10.3447-20.7004,4.3733-12.5527-13.2671c3.0406-6.5853,6.0082-11.4088,8.934-14.8721
		c-23.4342,7.3944-63.0584,15.5277-102.5712,3.751c-23.6264-7.0402-37.8627-17.5461-42.3128-31.2259
		c-5.2642-16.1804,5.5056-30.5501,5.9669-31.1544c6.5643-8.5952,15.551-10.4138,21.9743-10.4138c0.0357,0,0.0712,0,0.1067,0
		c12.6022,0.0442,19.1345,5.3569,22.3956,9.8067c4.6163,6.297,5.6996,14.9229,2.9729,23.6658
		c-2.9573,9.4719-11.9222,12.8119-19.2433,11.2026c-6.1001-1.3343-9.9072-5.7817-9.2585-10.8193
		c0.7882-6.0919,6.0307-9.1042,10.6555-11.7629c3.3667-1.9337,6.5461-3.7627,6.806-6.1456c0.2927-2.6802-0.2567-4.741-1.6797-6.2997
		c-3.3265-3.642-10.503-3.8122-12.6125-3.7608c-7.231,0.1249-13.0853,2.85-17.4014,8.097
		c-4.4379,5.3955-5.684,13.3401-3.3329,21.2525c4.0374,13.5908,17.5358,24.9053,37.0343,31.0427
		c26.5921,8.3708,59.1301,5.9542,87.7065-0.7458c-9.6706-1.7456-21.3271-5.7891-35.592-12.7819
		c-37.3813-18.3238-21.2729-47.8973,2.9472-39.0202c24.2201,8.8721,29.5235,31.0964,47.5204,43.9766
		c1.6188,1.1585,3.4287,1.8472,5.2767,2.2196c4.0379-1.3043,7.9308-2.6698,11.6239-4.0792c1.4015-0.532,2.9755,0.1305,3.5676,1.5092
		C337.1411,696.8833,336.541,698.483,335.1888,699.1317z M351.2271,698.7297c-5.9537,0-10.7804-4.8267-10.7804-10.7804
		c0-5.9537,4.8267-10.7804,10.7804-10.7804c5.954,0,10.7804,4.8267,10.7804,10.7804
		C362.0075,693.903,357.1811,698.7297,351.2271,698.7297z M480.9015,699.6534c-10.0089,16.15-21.279,31.4188-33.4685,45.9712
		c-0.2726,1.6902-1.577,3.1373-3.1552,3.8024c-0.1879,0.2202-0.365,0.4487-0.5532,0.6675c-1.9737,2.295-5.5527,3.2773-7.812,0.5807
		c-13.6406-16.2791-25.9082-33.6604-36.3874-52.1438c-7.9091-13.9484-21.0524-33.1321-19.0501-50.1266
		c1.5754-13.3666,14.4936-20.4764,27.0754-17.6251c15.9507,3.6152,22.8588,19.1425,29.588,32.9667
		c0.7829-0.7896,1.5849-1.5682,2.4075-2.3334c8.1228-11.0684,18.1875-22.0081,32.6954-22.6921
		c10.7693-0.5079,22.691,4.8291,25.8238,15.9044C502.3874,669.9047,488.3961,687.5623,480.9015,699.6534z M512.7729,697.4005
		c-5.9539,0-10.7804-4.8264-10.7804-10.7804c0-5.9537,4.8264-10.7804,10.7804-10.7804c5.9537,0,10.7802,4.8267,10.7802,10.7804
		C523.553,692.574,518.7266,697.4005,512.7729,697.4005z M521.438,381.6484c0-7.7313,6.0739-13.8052,13.8052-13.8052
		c11.3193,0,17.6693,12.9773,17.6693,26.5051c0,9.6632-3.5896,19.8774-10.7675,25.1231l-4.1417-12.6996
		c3.0374-3.5896,4.4177-8.5581,3.8656-12.9756c-1.9335,1.104-4.1417,1.6561-6.6257,1.6561
		C527.5119,395.4522,521.438,389.3784,521.438,381.6484z M694.8857,678.3875c-4.4501,13.6797-18.6866,24.1854-42.3125,31.2256
		c-39.513,11.777-79.1372,3.6434-102.5712-3.751c2.9255,3.4636,5.8931,8.2869,8.9337,14.8724
		c8.1476,17.6401-6.392,23.6116-12.5527,13.2668c-6.1623-10.3429-1.5415-19.9548-4.2698-29.9171
		c-0.099-0.3626-0.2416-0.6998-0.4018-1.0256c-7.5793-2.7413-12.2319-4.9349-12.9002-5.2557
		c-1.3523-0.649-1.952-2.2487-1.3599-3.6266c0.5923-1.3787,2.1664-2.041,3.5679-1.5092c3.6931,1.4097,7.586,2.7751,11.624,4.0792
		c1.848-0.3724,3.6581-1.0611,5.2766-2.2196c17.9972-12.8798,23.3006-35.1045,47.5204-43.9766
		c24.2201-8.8771,40.3285,20.6964,2.9472,39.0202c-14.2649,6.9931-25.9214,11.0363-35.592,12.7819
		c28.5767,6.7004,61.1144,9.1166,87.7065,0.7461c19.4985-6.1376,32.9966-17.4519,37.0343-31.0427
		c2.3511-7.9126,1.1048-15.8569-3.3329-21.2527c-4.3161-5.247-10.1705-7.9721-17.4014-8.097
		c-2.1095-0.0511-9.2858,0.1188-12.6125,3.7611c-1.423,1.5584-1.9727,3.6192-1.6797,6.2994
		c0.2599,2.3832,3.4393,4.2119,6.806,6.1456c4.625,2.6588,9.8673,5.6713,10.6558,11.7629c0.6482,5.0377-3.1587,9.485-9.2588,10.8193
		c-7.3213,1.6095-16.2858-1.7308-19.2433-11.2026c-2.727-8.7429-1.6437-17.3685,2.9729-23.6655
		c3.2609-4.4498,9.7934-9.7628,22.3956-9.8066c0.0355,0,0.0709,0,0.1064,0c6.4238,0,15.4102,1.8183,21.9748,10.4135
		C689.3801,647.837,700.1499,662.2068,694.8857,678.3875z M731.5235,542.3292h-22.087l1.3814-181.9399h22.0857L731.5235,542.3292z"
		/>
	<path fill="#217926" d="M514.5118,295.7116c0,0-110.4518-107.3257-16.2348-171.5486c0,0-14.8056-53.9473-69.99-28.2583
		c0,0-0.1479,11.3212-1.6458,28.4929c-4.7285-3.1868-9.744-5.9814-14.9568-8.3204c-0.7151-16.3643-6.3315-32.5158-15.7327-45.9065
		c-5.187-7.3877-12.2256-15.4743-20.4539-21.2872c0.4457-9.9852-3.9739-19.8312-8.6989-28.4862
		c-2.9908-5.4782-11.3661-0.5906-8.372,4.8935c2.9913,5.4794,6.1909,11.7039,7.1652,18.1034
		c-4.4165-1.7786-9.0547-2.7513-13.8424-2.5546c-8.7585,0.3598-17.0735,6.261-16.8574,15.7514
		c0.2176,9.5624,9.6838,17.3675,18.9428,17.2198c8.8196-0.1406,15.8203-6.7957,19.2484-14.548
		c16.1759,12.4645,26.3206,32.5096,28.4692,52.9326c-16.1427-5.1641-33.5071-5.9417-49.6808-0.6436
		c-18.3451,6.0091-35.0607,20.2028-40.3185,39.2786c-4.8599,17.6326,2.4741,38.9908,19.8816,46.6985
		c19.2041,8.5034,40.7027-2.1105,54.4631-15.7941c14.5281-14.4474,23.4704-33.9533,25.4814-54.2872
		c0.0237-0.2391,0.0322-0.4791,0.0537-0.7182c4.9619,2.5243,9.6949,5.5135,14.1096,8.8892
		c-4.0543,37.3115-25.3252,113.7375-38.6677,125.6288c-13.3425,11.8913-51.5391,26.2331-51.5391,26.2331
		c21.3596,3.3228,40.714,12.263,54.3327,25.8281c0,0.047,27.2425-12.4946,47.4358-11.7699
		c20.5882,0.739,52.1273,13.3076,52.4216,13.4104C489.5677,314.9633,494.782,297.1078,514.5118,295.7116z M352.0861,63.9968
		c-5.4718-1.0302-11.0416-8.9287-4.4487-12.4834c4.9603-2.6741,12.362-0.2564,16.9156,2.1922
		c0.0845,0.0457,0.1655,0.0966,0.25,0.1425C362.8858,59.3346,358.2701,65.161,352.0861,63.9968z M400.4686,135.1024
		c-3.3885,15.9841-11.5669,30.7774-23.6076,41.864c-11.205,10.3173-29.5957,19.2434-44.161,10.3249
		c-12.9862-7.9518-15.8064-25.7527-10.0403-38.9439c6.1538-14.0784,19.7369-24.0896,34.2651-28.2024
		c14.9528-4.2331,30.6228-2.8573,45.0172,2.4384C401.8129,126.8147,401.3361,131.0104,400.4686,135.1024z"/>
</g>
</svg>
